<?xml version="1.0" encoding="utf-8"?>
<!-- Generator: Adobe Illustrator 19.0.0, SVG Export Plug-In . SVG Version: 6.00 Build 0)  -->
<svg version="1.1" baseProfile="basic" xmlns="http://www.w3.org/2000/svg" xmlns:xlink="http://www.w3.org/1999/xlink" x="0px"
	 y="0px" viewBox="0 0 1024 1024" xml:space="preserve">
<style type="text/css">
	.st0{fill:url(#path246_2_);}
	.st1{fill:url(#XMLID_12_);}
	.st2{clip-path:url(#XMLID_13_);}
	.st3{clip-path:url(#XMLID_13_);fill:url(#XMLID_14_);}
</style>
<g id="Pawn">
	<g id="layer1_1_" transform="translate(0,-552.36275)" >
		<g id="g259_1_" transform="matrix(1.7650513,0,0,1.7650513,-527.72453,-875.21077)">
			<linearGradient id="path246_2_" gradientUnits="userSpaceOnUse" x1="434.7943" y1="1199.9915" x2="533.1625" y2="1370.3701">
				<stop  offset="0" style="stop-color:#BBBBBB"/>
				<stop  offset="1" style="stop-color:#000000"/>
			</linearGradient>
			<path id="path246_1_" class="st0" d="M440.5,1294.2c-1.8-0.1-2-0.2-2.4-0.7
				c-0.4-0.5-0.4-0.9-0.4-3.6c0-3.2,0-3.2,1.4-4.8c0.4-0.4,0.3-0.9-0.4-2.1c-0.3-0.6-0.6-1.3-0.6-1.6c0-1,1.2-2.4,5.3-6.8
				c6.2-6.3,6.3-6.5,5.7-8.6c-0.4-1.2-0.3-2.5,0.1-3c0.1-0.2,0.7-0.5,1.2-0.8c0.6-0.3,1.4-0.9,1.9-1.4c0.7-0.8,1-1.2,1.8-3.7
				c2.2-6.9,4.1-18.8,4.2-25.8c0-2.5-0.1-3.4-0.3-3.5c-0.2-0.1-1.4-0.3-2.8-0.5c-4-0.6-7.8-1.8-8.6-2.8c-0.4-0.4-0.4-0.5-0.1-1
				c0.6-1.2,4.2-3.1,8.8-4.6c1.7-0.5,2.1-0.8,2.1-1.2c0-0.2-0.6-0.9-1.3-1.5c-2.6-2.2-4.9-5.6-5.8-8.5c-1.3-4.2-0.9-9.5,1-13.4
				c1.9-3.9,5.7-7.5,9.3-8.9c1.5-0.5,4.9-1.2,6.1-1.2c1.3,0,4,0.5,5.6,1c3.9,1.3,7.5,4.4,9.6,8.3c1,1.9,1.5,3.4,1.9,6.1
				c0.9,5.9-1.6,12.6-6.1,16.2c-0.6,0.4-1.2,1.1-1.4,1.4c-0.3,0.5-0.3,0.5,0,0.8c0.2,0.2,1.1,0.5,1.9,0.7c2,0.7,5.8,2.4,7.3,3.4
				c1.2,0.8,1.7,1.5,1.4,2.3c-0.3,0.8-4.7,2.3-9,2.9c-1.3,0.2-2.5,0.4-2.6,0.6c-0.5,0.4,0.1,8.9,1,15.4c0.8,5.2,2.9,14.4,3.8,16.1
				c0.6,1.3,1.3,2,2.5,2.6c1.8,1,2.1,1.4,2.1,2.4c0,0.5-0.1,1.4-0.3,2c-0.3,1-0.3,1.1,0.2,2c0.3,0.7,2.1,2.7,5.2,5.9
				c2.6,2.7,5,5.2,5.2,5.6c0.7,1.3,0.5,2.7-0.7,3.9c-0.7,0.7-0.7,1,0.3,1.7c0.5,0.3,1,0.8,1.1,1.2c0.1,0.3,0.2,1.8,0.2,3.4
				c0,2.8,0,3-0.5,3.6l-0.5,0.6l-26,0.1C454.2,1294.3,441.6,1294.2,440.5,1294.2L440.5,1294.2z"/>
		</g>
	</g>
</g>
<g id="Rook">
	<g id="XMLID_2_">
		<linearGradient id="XMLID_12_" gradientUnits="userSpaceOnUse" x1="803.9533" y1="495.6097" x2="311.3201" y2="780.0316">
			<stop  offset="0" style="stop-color:#FFFFFF"/>
			<stop  offset="1" style="stop-color:#000000"/>
		</linearGradient>
		<path id="XMLID_3_" class="st1" d="M555.4,693c0,3.9,0.1,6.9-0.5,9.9c-0.2,1.3-0.6,2.4-1.7,2.9c-1.4,0.6-2.1,1.9-3,3.2
			c-2.2,3.3-4,6.8-5.8,10.4c-1.8,3.6-4.3,6.9-6.7,10.1c-1.2,1.7-3.1,2.6-5,3.2c-2.8,0.9-5.4,2.5-7.8,4.3c-7.7,5.8-15.1,12-22.4,18.5
			c-3,2.7-6.1,5.4-9.2,8.1c-5.1,4.5-9.5,9.8-13.7,15.4c-4.2,5.7-8.8,11.1-13.3,16.5c-2.7,3.2-5,6.7-7,10.4c-1.3,2.3-1,3.9,1,5.8
			c4.5,4.3,9.6,5.8,15.3,4.2c5.3-1.4,8.8-0.5,12.3,4.5c1.8,2.6,2.9,5.9,2.9,9.2c0,4.7,1.7,7.9,4.9,10.9c4.7,4.5,7.5,10.3,8.5,17.5
			c1.2,8.4,1.1,16.2-2.6,23.8c-0.5,1-0.9,1.9-1.7,2.7c-0.4,0.4-0.9,0.7-1.5,0.5c-0.7-0.3-0.9-1-0.9-1.8c0-0.7,0-1.5,0.2-2.2
			c0.7-2.2,0.7-4.6,1.1-6.8c0.1-0.7,0.3-1.6,0-2.1c-1.2-2.4-1.3-5.1-1.6-7.8c-0.1-0.8-0.4-1.8-0.8-2.3c-3.5-4.3-6.7-8.9-12.5-9.3
			c-6.3-0.4-12.5-2.2-18.8-2.9c-2.9-2-6.5-1.4-9.4-3.3c-0.9-0.6-2-0.8-3.1-1c-2.4-0.4-4.9-0.9-7.3-1.6c-3.1-1-4-0.3-5.1,3.4
			c-0.9,3-1.3,3.1-4.2,3.5c-7.9,1.2-15.9,0.2-23.8,1.1c-0.2,0-0.4,0.1-0.6,0c-7.5-0.8-15,0.4-22.5,0.4c-5.5,0-10.9,0-16.4,0.1
			c-2,0.1-3.9-0.3-5.1-2.5c-0.2-0.3-0.4-0.7-0.6-0.8c-3-1.4-5.6-3.4-7.9-6c-0.6-0.7-1.7-0.5-2.4,0.1c-1.1,0.8-2.2,1.6-3.2,2.4
			c-0.4,0.3-0.7,0.9-1.2,1.2c-0.7,0.5-1.6,1.1-2.4,0.3c-0.9-0.9-0.7-2.1,0-3c2.2-3.1,4-6.8,7.9-7.6c1-0.2,2.4-0.7,2-2.3
			c-0.3-1.5-1.7-1.8-2.9-1.7c-0.9,0-1.7,0.4-2.4,1c-1.8,1.6-4.2,2.6-5.2,5.3c-0.2,0.5-0.8,0.8-1.4,0.5c-0.7-0.4-0.8-1.1-0.4-1.8
			c0.7-1.5,1.1-3.2,1.7-4.8c0.6-1.9,1.8-3.2,3.3-4.3c3.7-2.8,7.5-3.6,11.9-2.2c2.4,0.8,5.1,0.7,7.7,0.9c4.9,0.4,9.3,2.7,13.9,4.4
			c1,0.4,2,0.9,3.1,0.9c4,0.1,5.2-0.9,6.1-5.3c0.5-2.5,1.4-4.9,2.4-7.2c0.8-1.8,0.7-2.1-0.9-2.5c-4.3-1.2-4.5-1.3-2.5-5.9
			c1.8-4.1,1.4-8,0.6-12.1c-0.4-2.3-1.7-3.6-3.5-4.3c-1.6-0.7-3.4-0.5-5.1-1c-0.8-0.2-1.4,0.4-2,1c-0.9,1.1-1.8,2.1-2.7,3.2
			c-1.6,1.8-3.3,2.8-5.7,2.9c-2.3,0.1-4.6,0.5-7,0.1c-1.6-0.3-2.8,0.4-3.6,2.3c-0.9,2.4-2.6,3.2-4,2.4c-2-1.1-2.9-3.4-2.3-5.7
			c0.2-0.7,0.4-1.4,0.5-2.1c1.7-8.3,6.3-13.3,13.5-15.6c1.8-0.6,3.6-0.9,5.1-2.1c0.7-0.6,1.6-0.6,2.5-0.5c1.4,0.2,2.8,0.2,4.2-0.1
			c0.5-0.1,1.2-0.3,1.6,0c2.6,1.7,5.7,1.8,8.3,3.7c2.5,1.9,5.2,3.3,7.7,5.3c0.5,0.4,1.2,0.5,1.8,0.8c2.4,1.1,4.9,0,7.5,1.2
			c2.2,1.1,5,0.9,7.6,1.1c2.1,0.2,4.2-0.4,6.4-0.7c0.3,0,0.7-0.2,0.8-0.5c1.1-1.8,3.3-2,4.4-3.5c1.8-2.4,4.1-3.4,6.4-4.5
			c0.7-0.3,1.5-0.7,1.9-1.4c1.4-2.4,3.5-3,5.7-3.4c1.5-0.3,2.7-1.2,3.9-2.2c1.9-1.6,4.1-3,6.1-4.6c0.7-0.6,1.5-0.9,2.1-1.6
			c5.4-6.2,12.1-10.4,17.8-16.2c5.2-5.2,10.2-10.5,14.2-16.9c0.8-1.3,1.1-2.5,0.4-4c-3-6.3-3.6-13.2-3.4-20.2
			c0.2-4.8,0.7-9.5-0.2-14.2c-0.7-3.9-0.4-7.8-0.5-11.7c0-2.1-0.7-3.6-2.4-4.8c-4.4-2.9-7.9-7.1-11.9-10.6
			c-6.1-5.4-11.5-11.8-16.8-18.1c-3.1-3.7-6.4-7.3-9.6-10.9c-1.5-1.7-3.1-3.4-4.3-5.4c-0.4-0.7-0.9-1.4-1.5-1.9
			c-6.9-6-13-13.1-19.5-19.6c-3.4-3.4-6.8-6.6-10.7-9.2c-11.6-7.6-22.8-16-34-24.5c-9.2-6.9-17.2-15.4-25.4-23.7
			c-7.3-7.4-15.1-14-23.4-19.9c-7.6-5.5-15.8-9.9-23.3-15.6c-5.9-4.6-12.5-8.2-17.8-13.7c-1.6-1.7-2.6-1.4-3.3,1
			c-1,3.6-2.6,7.3-2.5,10.9c0.1,5.6-0.1,11.2,0.2,16.7c0.6,9.1,2,18.1,3.1,27.2c1.1,10,2.9,20,4.5,29.9c1.1,6.7,2.5,13.3,4.3,19.8
			c1.7,6.5,3.1,13.2,4.4,19.8c1.5,7.5,2.9,15,4.4,22.5c0.3,1.5,1.1,3.5,0.1,4.5c-1.3,1.2-2.8-0.5-4-1.3c-6.3-4.1-12.1-8.9-17.3-14.6
			c-4.5-5-8.8-10.3-12.7-16.1c-4.6-7-9.3-14.1-13.3-21.6c-4.8-8.9-9.9-17.8-14.3-26.9c-2.8-5.8-6.5-10.9-9-16.9
			c-0.3-0.8-1-1.5-1.7-2.2c-1.4-1.5-3-2.8-3.6-5c-0.2-0.6-0.8-1.2-1.2-1.7c-1.8-1.8-3.2-3.9-4.6-6.1c-2.7-4.4-4-4.8-8.4-2.8
			c-4.8,2.1-9,0.5-13.1-2.4c-0.8-0.6-1.4-1.5-1.7-2.6c-0.8-3-2.7-5.1-4.9-6.6c-3-1.9-5.1-4.8-7.3-7.6c-2.3-2.9-4.6-5.8-7.6-7.8
			c-1.1-0.7-2.3-1.7-2.2-3.3c0.1-3.3-1.3-6.1-2.5-8.9c-1.3-3.1-2.1-6.4-3.4-9.4c-0.1-0.3-0.4-0.7-0.3-1c0.5-3-0.9-5.4-1.5-8.1
			c-0.4-1.8-0.8-3.5-1.7-5.1c-0.4-0.8-0.7-1.8-0.9-2.7c-1.3-5.5-2.3-11.1-4.3-16.4c-0.2-0.7-0.3-1.4-0.4-2.1
			c-0.4-3.5-0.8-7-1.1-10.5c-0.1-1.6-0.4-3.4,0.1-4.7c0.9-2.5,2.3-4.8,2.1-7.7c1.9-2,1.5-4.7,1.6-7.2c0-1.2-0.2-2.5,1.5-2.4
			c0.7,0,0.9-0.9,1.1-1.6c0.2-1.1,0.4-2.2,0.4-3.3c0.1-1.6,0.2-3.3,0.9-4.6c1.8-3.3,2.3-7.4,4.3-10.6c0.6-0.9,0.7-2,1.1-3
			c0.3-0.9,0.6-2.1,1.2-2.5c3.7-2.6,4.7-7.2,5.8-11.2c0.9-3,0.6-6.6,2.3-9.5c0.2-0.4,0-1.2-0.1-1.8c-0.3-1-0.3-1.9,0.8-2.4
			c0.9-0.4,0.9-1.6,1.2-2.5c0.4-1.8,0.7-3.6,1-5.4c0.2-1.1,0.4-2.1,1.6-2.4c1.6-0.3,1.9-2.9,3.7-2.9c0.9-2.1,1.4-1.6,2.1,0.2
			c0.3,0.9,0.8,0.4,1-0.2c0.5-1.5,0.9-3,1.9-4.2c1.1-1.3,1.6-1.4,2.7,0.2c0.6,0.8,1,1.3,1.7,0.3c0.3-0.4,0.6-0.7,1.1-0.6
			c1.2,0.1,1.4-0.7,1.4-1.8c0-1.1,0-2.2,0.3-3.3c0.4-1.6,1.3-1.9,2.7-1.1c1.6,0.9,1.6,0.9,1.7-1.2c0.1-1.5,0-2.9,0.3-4.4
			c0.2-0.9,0.4-1.8,1.4-1.6c0.8,0.1,0.8,1,0.8,1.7c0,0.1,0,0.2,0,0.4c0.1,1.1-0.6,2.5,0.5,3.3c0.5,0.4,1.3-1.7,1.3-3.7
			c0-1.5-0.6-2.8-0.9-4.2c-0.1-0.3,0.1-0.7,0.3-0.9c0.3-0.3,0.6,0,0.8,0.3c0.3,0.5,0.5,1,0.8,1.6c0.3,0.5,0.1,1.7,1,1.5
			c0.7-0.1,1.1-0.9,1.2-1.6c0.5-3.9,2.9-6.3,5.5-8.5c1-0.9,1.9-2,2.8-3c0.8-0.9,1.5-2.1,3-1.7c0.5,0.1,1-0.4,1.3-0.9
			c1-1.2,1.2-1,1.3,0.7c0.1,2.1,2,2.7,3.3,3.5c1.3,0.8,2.2-0.2,2.8-1.5c0.6-1.3,1.5-2.3,1.7-3.9c0.2-1.4,0.9-2.6,2.3-2.7
			c2.3-0.1,3.6-1.7,4.8-3.7c0.8-1.3,1.4-2.8,3.3-1.8c0.6,0.3,1.2-0.4,1.6-0.9c0.6-0.8,1.3-1.2,2.2-1.5c0.6-0.2,0.9-0.1,1.3,0.6
			c0.8,1.7,0.9,1.6,1.5,0.3c0.3-0.6,0.5-1.3,0.8-2c1-2.2,1.1-2.2,2.8-0.5c1.3,1.3,1.9,1.4,3.4,0.2c1.6-1.3,3-2.7,4.6-4.1
			c0.7-0.6,1.4-1.3,2.3-1.3c0.8,0,1.9-0.8,2.5,0c0.8,1-0.3,1.7-0.7,2.5c-0.2,0.4-0.5,0.9-0.2,1.3c0.6,0.7,1,0,1.3-0.4
			c1.5-2.5,4-3.2,6-4.7c1-0.8,2.1-0.8,3.2,0.3c1.1,1.2,2.9,1.2,4,2.7c0.4,0.6,1,0,1.3-0.5c0.6-0.7,1-1.6,1.7-2.2
			c1.7-1.8,3.7-2.8,5.9-1.6c1.4,0.7,2.2,0.5,3.1-0.7c0.5-0.7,1.1-1.2,1.9-1.2c2.2,0,3.8-1.5,5.4-2.9c3.6-3.1,7.3-6,10.8-9.2
			c1.8-1.7,3.9-3,6-4.2c2.4-1.5,4.6-3.6,6.8-5.5c3-2.4,5.9-4.7,9.5-6c2.8-1,5.3-3.1,7.9-4.9c1.1-0.8,2.1-1.6,3.6-1.3
			c0.9,0.2,1.6-0.5,2.4-0.9c0.9-0.5,1.8-0.9,2.7-1.3c0.4-0.2,0.9-0.2,1.2,0.3c0.4,0.6,0.1,1.1-0.3,1.6c-0.1,0.2-0.3,0.3-0.4,0.5
			c-1.4,1.7-1.4,1.7,0.6,2.4c0.5,0.2,0.7,0.6,0.5,1.1c-0.2,0.6-0.5,1.1-0.8,1.6c-0.2,0.3-0.3,0.7,0,1c0.2,0.3,0.6,0.3,0.9,0.1
			c3.4-1.9,7-2.9,10.4-4.8c3.4-1.9,6.9-3.8,10.8-4.6c1.8-0.4,3.4-1.5,5-2.5c4-2.4,8.3-3.9,12.8-4.7c0.3-0.1,0.7,0,1-0.1
			c5.9-2.2,12.3-1.7,18.3-3.8c2.4-0.8,4.9-0.6,7.4-0.1c1.6,0.3,3.2,0.3,4.8-0.1c2.4-0.6,4.8-0.9,7.3-0.4c1.3,0.3,2.8-0.1,4.2-0.2
			c5.5-0.4,10.9,0.2,16.4,0.2c5.4,0,10.9,0.5,16.2,2.5c0.3,0.1,0.6,0.2,0.9,0.2c4.6-0.2,8.6,2.6,13.1,3c0.4,0,0.9,0.2,1.2,0.5
			c3.1,3.2,7.3,3.3,10.8,5.4c6.7,3.9,13.8,6.6,20.6,10.2c1.5,0.8,3,1.5,4.2,2.7c3.7,3.4,8.1,4.8,12.4,6.4c3.8,1.5,7,4.4,10,7.2
			c2.7,2.5,5.6,4.5,8.6,6.5c3.2,2.2,6.1,4.8,8.6,8c1.1,1.4,2.3,2.7,3.2,4.5c0.9,2,3,2.6,4.7,3.8c6.7,4.7,13,10,18.4,16.5
			c2.3,2.7,5.2,4.7,7.5,7.5c5.1,2.1,8.3,7.2,12.9,10.1c3.9,2.5,8,4.1,12.4,4.9c5.1,1,10,2.6,14.8,4.9c6,2.9,12.4,4.8,18.5,7.5
			c10.3,4.6,20.9,8.4,30.8,14c4,2.3,7.8,5.1,11.3,8.3c1.8,1.6,3.6,3.1,5.7,4.1c5.7,2.9,11.2,6.2,16.8,9.4c5.4,3.1,11.1,5.9,16.2,9.7
			c2.7,2,5.7,3.4,8.5,5.3c5.7,4,11.3,8,16,13.4c0.7,0.8,1.4,1.5,2.1,2.2c4.8,4.3,9.1,9.2,12.6,14.9c0.4,0.6,0.7,1.2,1,1.9
			c1.1,2.5,1.8,5.2,3.3,7.5c0.7,1.2,0.3,2-1,2.2c-0.6,0.1-1.3,0-1.9,0c-1.3,0-2.6-0.1-3.9-0.1c-0.5,0-1.1,0-1.3,0.7
			c-0.1,0.5,0.2,0.9,0.5,1.3c0.9,1,1.8,2.1,2.8,3c3.6,3.2,7.4,6.3,11,9.6c1.8,1.7,3.5,3.6,5.1,5.5c4.6,5.5,10.1,9.8,14.8,15.2
			c2.9,3.3,5.8,6.5,7.6,10.8c1,2.4,2.2,4.7,3.4,7c0.9,1.7,1.2,3.4-0.1,5c-0.9,1.2-0.7,2.5-0.6,3.8c0.1,2,0.2,3.9-2.4,4.2
			c-1.2,0.1-1.6,1.4-1.7,2.8c-0.1,1.9,0.2,3.6,0.6,5.4c0.6,3.3,0.5,3.5-2.1,5.1c-2.7,1.7-2.8,2.4-2.1,5.9c0.6,3.1,1.4,6.2-0.1,9.6
			c-1.3,2.9-3.1,4.3-5.7,4.6c-2.3,0.2-4.7,0-7.1,0c-3.5-0.1-4.8,1.1-6.3,4.8c-1.2,2.9-0.5,4.5,1.4,6.5c5.7,5.9,11.3,12,16.9,18.1
			c1.1,1.2,2.2,2.4,3.3,3.5c3.5,3.4,6.5,7.4,9.7,11.2c4.4,5.3,8.4,11.1,12.4,16.8c0.7,1,1.6,2,2.5,2.9c5.5,5.6,11.1,11.1,16.7,16.7
			c0.5,0.5,1,0.9,1.4,1.5c3.6,4.8,7.8,9.1,12.1,13.1c5.5,5.2,9.8,11.6,13.8,18.2c1.7,2.7,3.4,5.3,4.9,8.1c1,1.8,2.5,3.4,4.1,4.6
			c6.2,4.9,12.3,9.8,18.5,14.7c8.8,6.9,17.7,13.8,25.1,22.9c1.9,2.4,2.9,5.4,4.6,7.8c1.3,1.8,2.2,3.8,3,6c1,2.7,1.2,5.3,0.4,8.2
			c-1,3.5-0.9,3.6,1.9,5.4c0.7,0.5,1.4,1.2,2.1,1.6c2.5,1.6,4.1,4.7,7.3,5c2.4,2.6,5.6,3.6,8.3,5.5c1.3,0.9,2.2,2.6,3.5,3.7
			c0.4,0.4,0.8,0.9,1.2,1.1c4.2,1.8,7,5.6,9.9,9.1c4.6,5.4,9.3,10.8,12.5,17.5c1.6,3.3,2.2,6.8,2.8,10.4c0.3,1.8,0,3.6-1.1,5.1
			c-1.5,2-1.4,2.6-0.1,4.9c1.4,2.3,2.7,4.7,4,7.1c1.9,3.5,2.6,7.5,3.5,11.3c0.5,2.1,0.1,4.4-0.5,6.5c-0.9,3.2-2.5,4-5.2,2.6
			c-4.3-2.3-8.2-5.3-12.3-8c-18.4-12.4-36.7-24.9-55.7-36.1c-17.5-10.3-34.7-21.1-52.4-30.9c-9.5-5.2-19.2-9.9-28.8-14.9
			c-2.2-1.1-4.3-2.2-6.5-3.3c-0.4-0.2-0.8-0.3-1.2,0c-0.6,0.5-0.3,1.1,0,1.6c1.9,3.1,3.8,6.2,5.8,9.3c3.4,5.3,6.8,10.6,10.3,15.9
			c2,3,4.2,5.8,6.2,8.9c4.4,7,9.5,13.5,13.6,20.9c1.5,2.8,4,4.7,5.7,7.4c4.3,6.8,9.2,13.2,13.8,19.7c3.6,5.1,7.3,10.2,10.9,15.3
			c2.3,3.3,4.7,6.6,6.7,10.1c1.4,2.5,3,5,5,7.1c2.9,3.1,5,7,7.5,10.5c2.7,3.9,5.6,7.7,8.4,11.6c1.2,1.7,2.6,3.3,3.2,5.4
			c0.4,1.4,1.7,1.8,2.4,2.9c3.3,4.9,6.7,9.8,10,14.7c0.3,0.4,0.4,0.9,0.6,1.3c0.2,0.4,0.5,0.9,0,1.3c-0.2,0.2-0.6,0.2-0.9,0.1
			c-1.3-0.5-2.6-1.1-4-1.6c-1-0.3-1.8-0.4-2,1.3c-0.3,2.2-0.8,2.3-2.5,1.3c-1.7-0.9-2.6-2.9-3.9-4.3c-0.4-0.4-0.8-1.2-1.3-0.9
			c-0.7,0.4,0,1,0.1,1.5c0.2,1.1-1.1,5.2-1.9,5.8c-0.4,0.3-0.8,0.4-1.2,0.2c-0.6-0.3-1.2-0.5-1.7-0.9c-5.6-4.6-11.5-8.5-16.6-13.9
			c-3.5-3.8-7.4-6.9-12.2-8.6c-4.5-1.6-8-5.2-11.6-8.4c-6-5.3-12.1-10.5-18.4-15.4c-2.6-2-4.9-4.4-7.2-6.8c-4.4-4.7-8.6-9.6-13.2-14
			c-8.3-8-16.2-16.4-24.1-24.9c-4.3-4.6-8.4-9.4-12.5-14.3c-8.5-10.2-17-20.3-25.6-30.5c-4.1-4.9-8.2-9.7-12.2-14.6
			c-1.4-1.6-3-2.7-4.8-3.7c-7.1-4.1-14.3-7.8-21.3-12.1c-10.6-6.5-21.2-13-31.9-19.1c-12.6-7.2-24.8-15.2-37.1-22.8
			c-1.2-0.8-2.5-1.4-3.9-1.4c-3.4,0-6.6-0.8-9.8-1.9c-10.2-3.6-20.4-7-30.2-11.7c-9.4-4.5-18.7-9.3-27.8-14.6
			c-2.5-1.4-5.4-1.7-7.6-3.9c-0.4-0.4-1.1-0.2-1.5,0.3c-0.8,1-1.7,0.9-2.7,0.6c-1.9-0.6-3.2,1-4.6,1.9c-0.3,0.2-0.5,0.5-0.4,0.9
			c0.4,1.8-0.3,3.1-1.3,4.2c-0.8,0.9-0.5,2-0.6,3.1c-0.1,2.2-0.8,2.5-2.4,1.3c-0.7-0.5-1.3-1.3-2-1.8c-2-1.7-4.2-2.9-6.8-2.7
			c-2.1,0.1-4.2-0.8-6.3-1.4c-3.4-1-5.2,0.5-5,4.5C555.2,690.6,555.4,692.2,555.4,693z M369.9,795.7c1.2-0.1,2.4-0.3,2.8-1.9
			c0.1-0.5,0.2-0.9-0.1-1.4c-0.3-0.4-0.8-0.5-1.1-0.3c-0.8,0.4-1.5,0.9-2.2,1.4c-0.4,0.3-0.9,0.7-0.7,1.4
			C368.7,795.8,369.4,795.6,369.9,795.7z M483,827.2c-0.1-0.2-0.2-0.5-0.3-0.6c-0.9-0.9-2-1-3-0.5c-0.7,0.3-0.9,1-0.4,1.7
			c0.6,0.9,3.1,0.6,3.6-0.3C483,827.4,483,827.3,483,827.2z M401.7,829.9c0.6-0.1,1.6,0,1.6-0.8c0.1-1-1-1.1-1.7-1.2
			c-0.5-0.1-1.2,0-1.2,0.8C400.3,829.8,401,829.8,401.7,829.9z"/>
	</g>
</g>
<g id="Table">
	<g id="XMLID_1_">
		<defs>
			<rect id="XMLID_10_" width="1024" height="1024"/>
		</defs>
		<clipPath id="XMLID_13_">
			<use xlink:href="#XMLID_10_"  style="overflow:visible;"/>
		</clipPath>
		<path id="XMLID_8_" class="st2" d="M155.8,848.9"/>
		<linearGradient id="XMLID_14_" gradientUnits="userSpaceOnUse" x1="162.1551" y1="1125.3524" x2="353.2408" y2="794.3824">
			<stop  offset="0" style="stop-color:#FFFFFF"/>
			<stop  offset="1" style="stop-color:#000000"/>
		</linearGradient>
		<path id="XMLID_9_" class="st3" d="M415.3,849.4l-423.5,5.3l1.2,173l372.9-3.7c-5.5-5.4,23.5,22.7,24,0
			c0.1-5.2,57.1,55.4,76.5,37.9c32.9-29.7,37.8-6.8,43-6.6c47.3,2.6,2.6-17.2,2.6-17.2c4.1-5.3,10-8.8,14.1-14.1
			c-2.6-8.5-9.5-129.1-29.6-145.3c-16-12.9-33.6-19.9-44.5-23.4c-12.2-2.1-24.5-4.2-36.7-6.3"/>
	</g>
</g>
</svg>
